<svg width="38" height="38" viewBox="0 0 38 38" fill="none" xmlns="http://www.w3.org/2000/svg">
<g clip-path="url(#clip0_20_507)">
<path d="M26.9166 33.25V30.0833C26.9166 28.4036 26.2494 26.7927 25.0617 25.605C23.8739 24.4173 22.263 23.75 20.5833 23.75H7.91665C6.23694 23.75 4.62603 24.4173 3.4383 25.605C2.25057 26.7927 1.58331 28.4036 1.58331 30.0833V33.25M36.4166 33.25V30.0833C36.4156 28.6801 35.9485 27.3169 35.0888 26.2078C34.2291 25.0988 33.0254 24.3066 31.6666 23.9558M25.3333 4.95583C26.6956 5.30464 27.9031 6.09694 28.7654 7.20782C29.6277 8.31871 30.0957 9.68498 30.0957 11.0913C30.0957 12.4975 29.6277 13.8638 28.7654 14.9747C27.9031 16.0856 26.6956 16.8779 25.3333 17.2267M20.5833 11.0833C20.5833 14.5811 17.7478 17.4167 14.25 17.4167C10.7522 17.4167 7.91665 14.5811 7.91665 11.0833C7.91665 7.58553 10.7522 4.75 14.25 4.75C17.7478 4.75 20.5833 7.58553 20.5833 11.0833Z" stroke="#1E1E1E" stroke-width="4" stroke-linecap="round" stroke-linejoin="round"/>
</g>
<defs>
<clipPath id="clip0_20_507">
<rect width="38" height="38" fill="white"/>
</clipPath>
</defs>
</svg>
