<svg width="83" height="83" viewBox="0 0 83 83" fill="none" xmlns="http://www.w3.org/2000/svg">
<path d="M23.1139 45.965H28.811C29.5441 45.9412 29.9222 45.5154 29.9222 44.9482C29.9222 44.4518 29.6855 44.0967 28.811 43.435C27.7227 42.5835 27.3685 41.5429 27.3685 40.5977C27.3685 38.3982 29.1422 36.5537 31.9565 36.5537C33.0678 36.5537 33.8486 36.7428 34.2974 37.0033L33.5881 39.5102C33.2568 39.3211 32.6897 39.1551 32.1924 39.1551C31.3647 39.1551 30.7968 39.5333 30.7968 40.2195C30.7968 40.6691 31.0566 40.9765 31.6007 41.3785C33.067 42.4667 33.3744 43.6248 33.3744 44.4287C33.3744 47.0063 31.53 48.5195 28.645 48.5195H22.4399" fill="black"/>
<path d="M9.81323 48.5311L12.935 32.167H16.4348L15.252 38.2444L15.2997 38.2683C15.9383 37.4406 16.9313 36.7074 18.2324 36.7074C19.7225 36.7074 20.3842 37.748 20.3842 39.3557C20.3842 40.0182 20.2659 40.8459 20.1006 41.7681L18.8003 48.5311H15.3005L16.6 41.815C16.6707 41.3654 16.7422 40.656 16.7422 40.3725C16.7422 39.876 16.577 39.5448 16.175 39.5448C15.6786 39.5448 14.9216 40.2303 14.5903 41.9095L13.3131 48.5311H9.81323Z" fill="black"/>
<path d="M20.7853 48.5311L23.0087 36.8965H26.5085L24.2852 48.5311H20.7853Z" fill="black"/>
<path d="M23.6235 33.94C23.6235 32.994 24.2859 31.8589 25.4917 31.8589C26.603 31.8589 27.0995 32.6866 27.0995 33.585C27.0995 34.933 26.1773 35.69 25.1843 35.69C24.0731 35.6907 23.6235 34.9099 23.6235 33.94Z" fill="#028202"/>
<path d="M33.2953 53.0716L35.6838 40.6093C35.9205 39.3797 36.1096 38.1262 36.2987 36.8966H39.2544L39.1122 38.5044H39.1599C39.8454 37.3931 40.9805 36.7068 42.021 36.7068C44.2674 36.7068 44.6463 38.6458 44.6463 40.4433C44.6463 44.4396 42.4706 48.7203 39.113 48.7203C38.5689 48.7203 38.0017 48.6496 37.6705 48.4836H37.5998L36.7482 53.0716H33.2953ZM38.0716 45.9536C38.2845 46.072 38.4736 46.1665 38.781 46.1665C40.2235 46.1665 41.075 42.8081 41.075 41.0581C41.075 40.4195 41.0512 39.6633 40.318 39.6633C39.727 39.6633 39.0884 40.5855 38.8755 41.6737L38.0716 45.9536Z" fill="black"/>
<path d="M55.0275 40.9167C55.0275 44.8661 52.8756 48.7203 49.3519 48.7203C46.0888 48.7203 45.474 46.2372 45.474 44.6763C45.474 40.4195 47.8387 36.7068 51.3862 36.7068C54.5779 36.7076 55.0275 39.2613 55.0275 40.9167ZM48.9024 44.5587C48.9024 45.1974 48.9262 46.0958 49.7062 46.0958C50.8413 46.0958 51.5983 42.5721 51.5983 40.4441C51.5983 39.8531 51.4093 39.3328 50.8183 39.3328C49.8008 39.332 48.8785 42.6666 48.9024 44.5587Z" fill="black"/>
<path d="M55.311 48.5312L56.8242 40.6093C57.061 39.3797 57.25 38.0793 57.4391 36.8966H60.4186C60.371 37.5114 60.3241 38.1262 60.2534 38.741H60.3479C61.2463 37.2509 62.3107 36.7075 63.2091 36.7075C63.422 36.7075 63.5872 36.7313 63.7532 36.7782L63.0907 40.2542C62.9724 40.2304 62.6888 40.2066 62.4998 40.2066C61.3178 40.2066 60.135 41.4124 59.7569 43.4697L58.8109 48.5304H55.311V48.5312Z" fill="black"/>
<path d="M67.2292 48.5665C65.2188 48.5665 64.2735 47.6089 64.2735 45.882C64.2735 45.3149 64.368 44.6286 64.4626 44.1798L65.3848 40.4079L63.8301 40.331L64.5102 36.8197L65.8582 36.8965L66.3078 34.5787L69.9498 33.751L69.3588 36.8965L71.5345 36.9734L70.8543 40.5616L68.8854 40.4079L67.9632 44.1798C67.9155 44.4872 67.8925 44.7708 67.8925 44.9598C67.8925 45.7399 68.3182 45.9766 68.8385 45.9766H69.7116" fill="black"/>
<path d="M66.3524 45.8882L73.0462 46.0419C73.7793 46.0181 74.1574 45.5923 74.1574 45.0251C74.1574 44.5287 73.9207 44.1736 73.0462 43.5119C71.9579 42.6604 71.6036 41.6198 71.6036 40.6746C71.6036 38.4751 73.3774 36.6306 76.1917 36.6306C77.303 36.6306 78.0838 36.8197 78.5326 37.0802L77.8233 39.5871C77.492 39.398 76.9249 39.232 76.4276 39.232C75.5999 39.232 75.032 39.6102 75.032 40.2964C75.032 40.746 75.2918 41.0534 75.8359 41.4554C77.3022 42.5436 77.6096 43.7018 77.6096 44.5056C77.6096 47.0832 75.7652 48.5964 72.8802 48.5964L67.2285 48.5672" fill="black"/>
</svg>
